<?xml version="1.0" encoding="utf-8"?>
<!-- Generator: Adobe Illustrator 16.0.0, SVG Export Plug-In . SVG Version: 6.00 Build 0)  -->
<!DOCTYPE svg PUBLIC "-//W3C//DTD SVG 1.1//EN" "http://www.w3.org/Graphics/SVG/1.1/DTD/svg11.dtd">
<svg version="1.1" id="Calque_1" focusable="false" xmlns="http://www.w3.org/2000/svg"
     x="0px" y="0px" width="841.889px" height="595.281px" viewBox="0 0 841.889 595.281"
     enable-background="new 0 0 841.889 595.281"
     xml:space="preserve">
<path d="M625.573,37.205H216.318c-30.822,0-55.808,24.985-55.808,55.808v409.256c0,30.821,24.985,55.808,55.808,55.808h409.255
	c30.821,0,55.808-24.986,55.808-55.808V93.012C681.38,62.19,656.394,37.205,625.573,37.205z M625.573,502.268H216.318V93.012
	h409.255V502.268z"/>
    <path d="M363.483,420.198c5.427,5.471,14.26,5.506,19.73,0.079l200.661-199.052c5.471-5.426,5.506-14.26,0.079-19.731
	l-26.201-26.413c-5.426-5.47-14.26-5.505-19.73-0.079L373.678,338.025l-69.518-70.082c-5.426-5.471-14.26-5.506-19.73-0.08
	l-26.414,26.202c-5.472,5.427-5.506,14.261-0.08,19.731L363.483,420.198z"/>
</svg>
