<?xml version="1.0" encoding="utf-8"?>
<!-- Generator: Adobe Illustrator 16.0.0, SVG Export Plug-In . SVG Version: 6.00 Build 0)  -->
<!DOCTYPE svg PUBLIC "-//W3C//DTD SVG 1.1//EN" "http://www.w3.org/Graphics/SVG/1.1/DTD/svg11.dtd">
<svg version="1.1" id="Calque_1" focusable="false" xmlns="http://www.w3.org/2000/svg"
     x="0px" y="0px" width="841.889px" height="595.281px" viewBox="0 0 841.889 595.281"
     enable-background="new 0 0 841.889 595.281"
     xml:space="preserve">
<path class="cross" d="M555.813,265.086H453.499V162.772c0-7.674-6.278-13.952-13.952-13.952h-37.205c-7.673,0-13.951,6.278-13.951,13.952v102.313
	H286.076c-7.673,0-13.952,6.278-13.952,13.952v37.205c0,7.674,6.279,13.952,13.952,13.952h102.314v102.313
	c0,7.674,6.278,13.952,13.951,13.952h37.205c7.674,0,13.952-6.278,13.952-13.952V330.195h102.313
	c7.674,0,13.952-6.278,13.952-13.952v-37.205C569.765,271.364,563.487,265.086,555.813,265.086z"/>
    <path class="square" d="M625.573,37.205H216.318c-30.822,0-55.808,24.985-55.808,55.808v409.256c0,30.821,24.985,55.808,55.808,55.808h409.255
	c30.821,0,55.808-24.986,55.808-55.808V93.012C681.38,62.19,656.394,37.205,625.573,37.205z M625.573,502.268H216.318V93.012
	h409.255V502.268z"/>
</svg>
